<svg xmlns="http://www.w3.org/2000/svg" width="1200" height="630" viewBox="0 0 1200 630">
<rect width="1200" height="630" fill="#202733"/>
<path d="M66 111V69h22c26 0 26 30 0 30H80" fill="none" stroke="#f8fafc" stroke-width="7"/>
<text x="118" y="103" fill="#f8fafc" font-family="Arial,sans-serif" font-size="39" font-weight="600" letter-spacing="-1">PeopleOS</text>
<rect x="934" y="67" width="198" height="37" rx="5" fill="#2e3848"/>
<text x="1033" y="91" fill="#cbd6e7" font-family="Arial,sans-serif" font-size="15" text-anchor="middle">INTERACTIVE DEMO</text>
<text x="64" y="232" fill="#ffffff" font-family="Arial,sans-serif" font-size="62" font-weight="600" letter-spacing="-2">AI-powered recruitment.</text>
<text x="64" y="307" fill="#ffffff" font-family="Arial,sans-serif" font-size="62" font-weight="600" letter-spacing="-2">People-first operations.</text>
<text x="67" y="366" fill="#b5c1d3" font-family="Arial,sans-serif" font-size="25">From the first conversation to the first day. One HR workspace.</text>
<path d="M66 441H1134" stroke="#475369" stroke-width="1"/>
<circle cx="66" cy="441" r="4" fill="#92a8cc"/><text x="66" y="481" fill="#93a5bf" font-family="Arial,sans-serif" font-size="15">01</text><text x="66" y="516" fill="#f5f7fc" font-family="Arial,sans-serif" font-size="24" font-weight="600">WhatsApp</text><text x="66" y="545" fill="#aebcd1" font-family="Arial,sans-serif" font-size="16">Start the conversation</text><circle cx="339" cy="441" r="4" fill="#92a8cc"/><text x="339" y="481" fill="#93a5bf" font-family="Arial,sans-serif" font-size="15">02</text><text x="339" y="516" fill="#f5f7fc" font-family="Arial,sans-serif" font-size="24" font-weight="600">Intelligence</text><text x="339" y="545" fill="#aebcd1" font-family="Arial,sans-serif" font-size="16">Understand every candidate</text><circle cx="612" cy="441" r="4" fill="#92a8cc"/><text x="612" y="481" fill="#93a5bf" font-family="Arial,sans-serif" font-size="15">03</text><text x="612" y="516" fill="#f5f7fc" font-family="Arial,sans-serif" font-size="24" font-weight="600">Hiring</text><text x="612" y="545" fill="#aebcd1" font-family="Arial,sans-serif" font-size="16">Move decisions forward</text><circle cx="885" cy="441" r="4" fill="#92a8cc"/><text x="885" y="481" fill="#93a5bf" font-family="Arial,sans-serif" font-size="15">04</text><text x="885" y="516" fill="#f5f7fc" font-family="Arial,sans-serif" font-size="24" font-weight="600">Onboarding</text><text x="885" y="545" fill="#aebcd1" font-family="Arial,sans-serif" font-size="16">Make day one count</text></svg>